<?xml version="1.0" encoding="UTF-8"?>
<svg id="Layer_2" data-name="Layer 2" xmlns="http://www.w3.org/2000/svg" viewBox="0 0 186 186">
  <defs>
    <style>
      .cls-1 {
        fill: #fff;
      }
    </style>
  </defs>
  <path class="cls-1" d="M91.6,185.75c-14.25,0-28.53.65-42.73-.14-27.11-1.52-46.81-19.9-47.92-46.77-1.27-30.62-1.24-61.38,0-92.01C1.96,21.7,19.21,2.78,44.04,1.37c32.65-1.85,65.56-1.8,98.22-.03,24.11,1.3,41.52,19.99,42.63,44.47,1.41,31.04,1.5,62.24.14,93.28-1.16,26.59-20.35,44.75-46.83,46.41-15.48.97-31.07.18-46.61.18,0,.03,0,.05,0,.08ZM93.84,16.69s0,.03,0,.04c-13.83,0-27.68-.54-41.48.12-22.13,1.06-35.28,14.19-35.77,36.36-.6,26.82-.69,53.68.06,80.49.61,21.8,13.65,35.44,34.68,36.04,27.63.8,55.33.78,82.96-.03,20.5-.61,34.1-13.25,34.81-33.04,1.03-28.53,1.05-57.14.03-85.67-.77-21.3-14.74-33.56-36.4-34.25-12.95-.41-25.93-.07-38.89-.07Z"/>
  <path class="cls-1" d="M92.89,45.05c27.22.01,48.25,21.21,48.08,48.46-.17,26.21-21.73,47.76-47.83,47.82-26.54.05-48.4-22.13-48.17-48.87.23-26.41,21.46-47.42,47.93-47.41ZM93.36,124.24c17.3-.17,31.25-14.56,30.81-31.78-.43-16.72-14.23-30.44-30.87-30.68-17.08-.24-31.3,13.99-31.35,31.38-.05,17.34,14.01,31.26,31.41,31.09Z"/>
  <ellipse class="cls-1" cx="140.96" cy="37.93" rx="10.94" ry="10.96"/>
</svg>