<?xml version="1.0" encoding="UTF-8"?>
<svg id="Layer_1" data-name="Layer 1" xmlns="http://www.w3.org/2000/svg" viewBox="0 0 184 210">
  <defs>
    <style>
      .cls-1 {
        fill: #fff;
      }
    </style>
  </defs>
  <path class="cls-1" d="M98.32,0h33.6c4.14,30.39,23.04,45.56,52.08,50.64v39.97c-17.08-6.03-32.52-11.47-49.38-17.42,0,18.07.24,36.87-.09,55.67-.18,10.37-.19,20.95-2.23,31.04-6.62,32.74-41.93,54.74-77.78,49.26C22.39,204.25-2.53,171.23.2,137.18c2.54-31.69,32.88-59.99,64.61-60.08,3.33,0,6.66.97,10.3,1.53v33.58c-5.99,1.07-11.94,1.56-17.54,3.25-14.15,4.27-22.59,17.53-20.93,31.97,1.58,13.75,12.93,24.49,26.93,25.46,16.65,1.16,29.24-6.68,32.84-21.15,1.34-5.38,1.6-11.14,1.63-16.73.2-39.9.21-79.8.28-119.7,0-4.72,0-9.44,0-15.32Z"/>
</svg>